<svg width="1201" height="1200" viewBox="0 0 1201 1200" fill="none" xmlns="http://www.w3.org/2000/svg">
<path d="M600.223 1200C931.594 1200 1200.22 931.371 1200.22 600C1200.22 268.629 931.594 0 600.223 0C268.852 0 0.222656 268.629 0.222656 600C0.222656 931.371 268.852 1200 600.223 1200Z" fill="#FEFEFE"/>
<path d="M1007.67 500.614C1007.67 500.614 924.061 393.75 818.975 387.638C751.162 383.636 734.734 392.696 731.789 399.443C727.581 364.455 697.677 202.36 491.085 168.008C517.458 357.589 626.375 308.191 690.517 438.86C690.517 438.86 582.276 291.734 404.325 345.903C404.325 345.903 469.185 482.069 661.032 509.891C661.032 509.891 676.406 562.586 681.04 571.862C681.04 571.862 385.58 417.779 295.868 713.504C229.102 698.382 206.707 770.859 283.446 820.369C283.446 820.369 296.503 768.519 328.298 753.13C328.298 753.13 260.067 829.226 340.302 920.359H628.28C635.238 908.834 666.035 848.19 589.869 802.284C643.634 801.516 687.397 902.932 734.483 921.058H802.966C805.283 915.428 810.126 898.566 798.751 883.395C781.213 863.278 742.816 866.002 743.158 828.799C756.417 655.745 1015.91 708.887 1007.66 500.614H1007.67Z" fill="#171717"/>
</svg>
